# xmcd CD database file
#
# Track frame offsets:
#	150
#	16642
#	32580
#	51875
#	68027
#	82575
#	97810
#	114842
#	130865
#	149287
#	187597
#
# Disc length: 2774 seconds
#
# Revision: 0
# Processed by: cddbd v1.5.2PL0 Copyright (c) Steve Scherf et al.
# Submitted via: CDex 1.51
#
DISCID=720ad40b
DTITLE=Various Artist - Sabor Da Saudade - Jazzy Moods - CD2
DYEAR=2006
DGENRE=Jazz
TTITLE0=Astrud Gilbertzo - Zazueira
TTITLE1=Heloisa Buarque de Hollanda - Double Rainbow
TTITLE2=Lisa Ekdahl - Love For Sale
TTITLE3=Cecilia Dale - Our Love Is Here To Stay
TTITLE4=Flora Purim - Preciso Aprender A Ser So
TTITLE5=Paulo Jobim - Desafinado
TTITLE6=Adriana Calcanhotto - Programa
TTITLE7=Angelique Kidjo - Bahia
TTITLE8=Lenine - Jack Soul Brasileiro
TTITLE9=Willy Torres - Pastime Paradise
TTITLE10=Patti Austin - Havana Candy
EXTD=YEAR: 2006
EXTT0=
EXTT1=
EXTT2=
EXTT3=
EXTT4=
EXTT5=
EXTT6=
EXTT7=
EXTT8=
EXTT9=
EXTT10=
PLAYORDER=
